<?xml version="1.0" encoding="UTF-8" standalone="no"?>
<svg
   xmlns:dc="http://purl.org/dc/elements/1.1/"
   xmlns:cc="http://creativecommons.org/ns#"
   xmlns:rdf="http://www.w3.org/1999/02/22-rdf-syntax-ns#"
   xmlns:svg="http://www.w3.org/2000/svg"
   xmlns="http://www.w3.org/2000/svg"
   xmlns:sodipodi="http://sodipodi.sourceforge.net/DTD/sodipodi-0.dtd"
   xmlns:inkscape="http://www.inkscape.org/namespaces/inkscape"
   id="svg8"
   version="1.1"
   viewBox="0 0 210 210"
   height="210mm"
   width="210mm"
   sodipodi:docname="continuum.svg"
   inkscape:export-filename="/home/oldham/Projects/Continuum/assets/images/continuum.png"
   inkscape:export-xdpi="123.85523"
   inkscape:export-ydpi="123.85523"
   inkscape:version="0.92.5 (2060ec1f9f, 2020-04-08)">
  <sodipodi:namedview
     pagecolor="#ffffff"
     bordercolor="#666666"
     borderopacity="1"
     objecttolerance="10"
     gridtolerance="10"
     guidetolerance="10"
     inkscape:pageopacity="0"
     inkscape:pageshadow="2"
     inkscape:window-width="1920"
     inkscape:window-height="1080"
     id="namedview75"
     showgrid="false"
     inkscape:zoom="1.0898313"
     inkscape:cx="396.85039"
     inkscape:cy="396.85039"
     inkscape:window-x="0"
     inkscape:window-y="0"
     inkscape:window-maximized="1"
     inkscape:current-layer="layer1" />
  <defs
     id="defs2" />
  <metadata
     id="metadata5">
    <rdf:RDF>
      <cc:Work
         rdf:about="">
        <dc:format>image/svg+xml</dc:format>
        <dc:type
           rdf:resource="http://purl.org/dc/dcmitype/StillImage" />
        <dc:title />
      </cc:Work>
    </rdf:RDF>
  </metadata>
  <g
     transform="translate(0,-87)"
     id="layer1">
    <g
       transform="translate(14.022342,95.778813)"
       id="g4641">
      <path
         style="fill:none;fill-opacity:1;stroke:#009be4;stroke-width:66.83746338;stroke-miterlimit:4;stroke-dasharray:none;stroke-opacity:1"
         d="M 573.28496,561.76772 A 276.14176,276.14176 0 0 1 377.70065,642.9709 276.14176,276.14176 0 0 1 101.55889,366.82914 276.14176,276.14176 0 0 1 377.70065,90.687381 276.14176,276.14176 0 0 1 573.45403,172.06034"
         id="path4526"
         transform="scale(0.26458333)" />
      <path
         id="path4582"
         style="fill:#000000;fill-opacity:1;fill-rule:nonzero;stroke:#009be4;stroke-width:0.40000001;stroke-linecap:butt;stroke-linejoin:miter;stroke-miterlimit:4;stroke-dasharray:none;stroke-opacity:1"
         d="m 141.39498,54.755054 19.50664,-0.02951 v 0 m 0.10088,-19.524852 -0.10088,19.524851 v 0 m 0.10088,-19.524851 -19.60752,19.554362 v 0" />
      <path
         style="fill:#009be4;fill-opacity:1;fill-rule:nonzero;stroke:#009be4;stroke-width:0;stroke-miterlimit:4;stroke-dasharray:none;stroke-opacity:1"
         d="m 144.51252,54.533704 c -0.0224,-0.03675 -0.21393,-0.382529 -0.4257,-0.7684 -0.21177,-0.385871 -0.41736,-0.756301 -0.45688,-0.823182 l -0.0719,-0.121598 7.27587,-7.260978 c 4.00172,-3.993537 7.89648,-7.877702 8.65501,-8.631479 l 1.37914,-1.370499 -0.0178,0.851921 c -0.01,0.468556 -0.0347,4.745704 -0.0553,9.504773 -0.0206,4.759068 -0.0397,8.655671 -0.0424,8.659119 -0.003,0.0034 -3.64864,0.01098 -8.10214,0.0167 -8.06705,0.0104 -8.09741,0.01019 -8.13792,-0.05638 z"
         id="path4623" />
      <path
         style="fill:#009be4;fill-opacity:1;fill-rule:nonzero;stroke:#009be4;stroke-width:0.1;stroke-miterlimit:4;stroke-dasharray:none;stroke-opacity:1"
         d="m 142.62489,53.731895 c 0.48668,-0.486931 0.89249,-0.885177 0.90181,-0.884986 0.009,1.87e-4 0.23197,0.390128 0.4948,0.866536 0.36866,0.66824 0.49464,0.86945 0.55124,0.880439 0.0404,0.0078 -0.58049,0.0163 -1.37966,0.01878 l -1.45304,0.0046 z"
         id="path4625" />
    </g>
    <rect
       y="100.98588"
       x="15.590931"
       height="183.74556"
       width="184.30652"
       id="rect4770"
       style="fill:none;fill-opacity:1;fill-rule:nonzero;stroke:#000000;stroke-width:0.44769791;stroke-miterlimit:4;stroke-dasharray:none;stroke-opacity:1" />
    <g
       aria-label="ontinuum"
       transform="matrix(0.44132804,0,0,0.44132804,-61.012068,-14.315502)"
       style="font-style:normal;font-variant:normal;font-weight:normal;font-stretch:normal;font-size:69.74430084px;line-height:1.25;font-family:Manuale;-inkscape-font-specification:'Manuale, Normal';font-variant-ligatures:normal;font-variant-caps:normal;font-variant-numeric:normal;font-feature-settings:normal;text-align:start;letter-spacing:0px;word-spacing:0px;writing-mode:lr-tb;text-anchor:start;fill:#000000;fill-opacity:1;stroke:none"
       id="flowRoot4780">
      <path
         d="m 290.53767,498.04062 q 5.92827,0 9.41548,2.44105 3.55696,2.3713 5.16108,6.41647 1.60412,4.04517 1.60412,9.06676 0,4.81236 -1.60412,8.85753 -1.60412,3.97542 -5.16108,6.41647 -3.55696,2.37131 -9.41548,2.37131 -5.78877,0 -9.41548,-2.37131 -3.55696,-2.44105 -5.23082,-6.41647 -1.60412,-4.04517 -1.60412,-8.85753 0,-5.02159 1.60412,-9.06676 1.67386,-4.04517 5.23082,-6.41647 3.62671,-2.44105 9.41548,-2.44105 z m 9.7642,17.71505 q 0,-4.11492 -0.83693,-7.32315 -0.83693,-3.27799 -2.999,-5.16108 -2.16207,-1.95284 -6.1375,-1.95284 -3.76619,0 -5.85852,1.95284 -2.09233,1.88309 -2.92926,5.16108 -0.83693,3.20823 -0.83693,7.32315 0,4.11491 0.83693,7.46264 0.90667,3.27798 3.06875,5.16108 2.16207,1.88309 6.1375,1.88309 3.90568,0 5.92826,-1.88309 2.09233,-1.8831 2.85952,-5.16108 0.76718,-3.34773 0.76718,-7.46264 z"
         style="font-style:normal;font-variant:normal;font-weight:normal;font-stretch:normal;font-size:69.74430084px;font-family:Manuale;-inkscape-font-specification:'Manuale, Normal';font-variant-ligatures:normal;font-variant-caps:normal;font-variant-numeric:normal;font-feature-settings:normal;text-align:start;writing-mode:lr-tb;text-anchor:start"
         id="path77" />
      <path
         d="m 323.73589,500.83039 q 1.39489,-0.6277 3.41747,-1.2554 2.02259,-0.6277 4.39389,-1.04616 2.37131,-0.48821 4.67287,-0.48821 2.51079,0 4.60312,0.69744 2.09233,0.69744 3.34773,2.3713 1.32514,1.67387 1.32514,4.53338 v 23.57358 l 6.27699,1.74361 v 1.95284 h -17.7848 v -1.95284 l 5.71903,-1.74361 V 506.8284 q 0,-2.78977 -1.46463,-3.69645 -1.39488,-0.90668 -5.5098,-0.90668 -2.16207,0 -4.67286,0.27898 -2.44105,0.27898 -4.32415,0.83693 v 25.87514 l 5.71903,1.74361 v 1.95284 h -17.71505 v -1.95284 l 6.20724,-1.74361 v -26.2936 l -6.20724,-0.69745 v -1.60412 l 10.11292,-2.58053 h 1.8831 z"
         style="font-style:normal;font-variant:normal;font-weight:normal;font-stretch:normal;font-size:69.74430084px;font-family:Manuale;-inkscape-font-specification:'Manuale, Normal';font-variant-ligatures:normal;font-variant-caps:normal;font-variant-numeric:normal;font-feature-settings:normal;text-align:start;writing-mode:lr-tb;text-anchor:start"
         id="path79" />
      <path
         d="m 376.04402,532.14558 q -1.39489,0.34872 -3.6267,0.69744 -2.16208,0.34872 -4.18466,0.48821 -2.02259,0.20923 -2.99901,0.20923 -2.09233,0 -3.27798,-0.83693 -1.18565,-0.83693 -1.67386,-2.16207 -0.48821,-1.32514 -0.48821,-2.72003 v -25.59616 h -5.09134 v -2.51079 l 5.64929,-1.74361 2.58054,-6.97443 h 2.58054 v 7.67187 h 11.50781 v 4.11492 l -11.50781,-0.55796 v 26.64233 l 10.53139,1.39488 z"
         style="font-style:normal;font-variant:normal;font-weight:normal;font-stretch:normal;font-size:69.74430084px;font-family:Manuale;-inkscape-font-specification:'Manuale, Normal';font-variant-ligatures:normal;font-variant-caps:normal;font-variant-numeric:normal;font-feature-settings:normal;text-align:start;writing-mode:lr-tb;text-anchor:start"
         id="path81" />
      <path
         d="m 379.87983,532.91277 v -2.23182 l 6.20724,-1.46463 v -26.2936 l -6.20724,-0.69745 v -1.60412 l 10.25241,-2.58053 h 1.74361 v 31.1757 l 6.20724,1.46463 v 2.23182 z m 9.06676,-40.4517 q -1.67387,0 -2.92926,-1.11591 -1.2554,-1.11591 -1.2554,-2.85951 0,-1.74361 1.2554,-2.92926 1.25539,-1.2554 2.92926,-1.2554 1.60412,0 2.85951,1.2554 1.32514,1.18565 1.32514,2.92926 0,1.7436 -1.32514,2.85951 -1.25539,1.11591 -2.85951,1.11591 z"
         style="font-style:normal;font-variant:normal;font-weight:normal;font-stretch:normal;font-size:69.74430084px;font-family:Manuale;-inkscape-font-specification:'Manuale, Normal';font-variant-ligatures:normal;font-variant-caps:normal;font-variant-numeric:normal;font-feature-settings:normal;text-align:start;writing-mode:lr-tb;text-anchor:start"
         id="path83" />
      <path
         d="m 413.636,500.83039 q 1.39488,-0.6277 3.41747,-1.2554 2.02258,-0.6277 4.39389,-1.04616 2.37131,-0.48821 4.67287,-0.48821 2.51079,0 4.60312,0.69744 2.09233,0.69744 3.34773,2.3713 1.32514,1.67387 1.32514,4.53338 v 23.57358 l 6.27699,1.74361 v 1.95284 h -17.7848 v -1.95284 l 5.71903,-1.74361 V 506.8284 q 0,-2.78977 -1.46463,-3.69645 -1.39488,-0.90668 -5.5098,-0.90668 -2.16207,0 -4.67287,0.27898 -2.44105,0.27898 -4.32414,0.83693 v 25.87514 l 5.71903,1.74361 v 1.95284 h -17.71505 v -1.95284 l 6.20724,-1.74361 v -26.2936 l -6.20724,-0.69745 v -1.60412 l 10.11292,-2.58053 h 1.8831 z"
         style="font-style:normal;font-variant:normal;font-weight:normal;font-stretch:normal;font-size:69.74430084px;font-family:Manuale;-inkscape-font-specification:'Manuale, Normal';font-variant-ligatures:normal;font-variant-caps:normal;font-variant-numeric:normal;font-feature-settings:normal;text-align:start;writing-mode:lr-tb;text-anchor:start"
         id="path85" />
      <path
         d="m 483.3802,532.07583 q -2.16208,0.6277 -4.11492,0.83694 -1.88309,0.27897 -3.27798,0.27897 -1.32514,0 -2.78977,-0.90667 -1.39489,-0.90668 -1.67387,-2.58054 -2.92926,1.18565 -6.34673,2.58054 -3.34772,1.32514 -7.04417,1.32514 -2.99901,0 -4.74261,-1.18565 -1.74361,-1.18566 -2.5108,-3.06875 -0.69744,-1.95284 -0.69744,-4.04517 v -22.38792 l -6.20724,-0.69745 v -1.60412 l 10.25241,-2.58053 h 1.81335 v 26.50283 q 0,2.30156 0.97642,3.55696 1.04616,1.18565 4.67287,1.18565 1.88309,0 4.60312,-0.69744 2.78977,-0.69744 4.8821,-1.46463 v -24.20127 l -6.27698,-0.69745 v -1.60412 l 10.25241,-2.58053 h 1.88309 v 30.82698 l 6.34674,1.25539 z"
         style="font-style:normal;font-variant:normal;font-weight:normal;font-stretch:normal;font-size:69.74430084px;font-family:Manuale;-inkscape-font-specification:'Manuale, Normal';font-variant-ligatures:normal;font-variant-caps:normal;font-variant-numeric:normal;font-feature-settings:normal;text-align:start;writing-mode:lr-tb;text-anchor:start"
         id="path87" />
      <path
         d="m 525.01742,532.07583 q -2.16208,0.6277 -4.11492,0.83694 -1.88309,0.27897 -3.27798,0.27897 -1.32514,0 -2.78977,-0.90667 -1.39489,-0.90668 -1.67386,-2.58054 -2.92926,1.18565 -6.34673,2.58054 -3.34773,1.32514 -7.04418,1.32514 -2.999,0 -4.74261,-1.18565 -1.74361,-1.18566 -2.5108,-3.06875 -0.69744,-1.95284 -0.69744,-4.04517 v -22.38792 l -6.20724,-0.69745 v -1.60412 l 10.25241,-2.58053 h 1.81335 v 26.50283 q 0,2.30156 0.97642,3.55696 1.04617,1.18565 4.67287,1.18565 1.8831,0 4.60312,-0.69744 2.78978,-0.69744 4.88211,-1.46463 v -24.20127 l -6.27699,-0.69745 v -1.60412 l 10.25241,-2.58053 h 1.8831 v 30.82698 l 6.34673,1.25539 z"
         style="font-style:normal;font-variant:normal;font-weight:normal;font-stretch:normal;font-size:69.74430084px;font-family:Manuale;-inkscape-font-specification:'Manuale, Normal';font-variant-ligatures:normal;font-variant-caps:normal;font-variant-numeric:normal;font-feature-settings:normal;text-align:start;writing-mode:lr-tb;text-anchor:start"
         id="path89" />
      <path
         d="m 528.22553,532.91277 v -1.95284 l 6.20724,-1.74361 v -26.2936 l -6.20724,-0.69745 v -1.60412 l 10.18267,-2.58053 h 1.88309 v 2.78977 q 1.32515,-0.6277 3.20824,-1.2554 1.95284,-0.6277 4.11492,-1.04616 2.23181,-0.48821 4.39389,-0.48821 2.09233,0 4.11491,0.69744 2.02259,0.6277 3.13849,2.09233 1.53438,-0.6277 3.62671,-1.2554 2.16207,-0.6277 4.60312,-1.04616 2.5108,-0.48821 5.02159,-0.48821 2.85952,0 4.81236,0.83693 1.95284,0.83693 2.92926,2.58054 1.04616,1.67386 1.04616,4.18465 v 23.57358 l 6.34673,1.74361 v 1.95284 h -17.36633 v -1.95284 l 5.23083,-1.74361 V 506.8284 q 0,-2.65029 -1.39489,-3.62671 -1.39489,-0.97642 -5.71903,-0.97642 -1.95284,0 -4.18466,0.27898 -2.16207,0.27898 -3.76619,0.83693 0.13949,0.41847 0.20923,1.04617 0.0697,0.55795 0.0697,1.25539 v 23.57358 l 5.23083,1.74361 v 1.95284 h -16.18068 v -1.95284 l 5.16108,-1.74361 V 506.8284 q 0,-2.78977 -1.46463,-3.69645 -1.39489,-0.90668 -5.71904,-0.90668 -1.7436,0 -3.83593,0.27898 -2.09233,0.27898 -3.62671,0.83693 v 25.87514 l 5.09134,1.74361 v 1.95284 z"
         style="font-style:normal;font-variant:normal;font-weight:normal;font-stretch:normal;font-size:69.74430084px;font-family:Manuale;-inkscape-font-specification:'Manuale, Normal';font-variant-ligatures:normal;font-variant-caps:normal;font-variant-numeric:normal;font-feature-settings:normal;text-align:start;writing-mode:lr-tb;text-anchor:start"
         id="path91" />
    </g>
  </g>
</svg>
