<?xml version="1.0" encoding="UTF-8" standalone="no"?>
<svg
   xmlns:dc="http://purl.org/dc/elements/1.1/"
   xmlns:cc="http://creativecommons.org/ns#"
   xmlns:rdf="http://www.w3.org/1999/02/22-rdf-syntax-ns#"
   xmlns:svg="http://www.w3.org/2000/svg"
   xmlns="http://www.w3.org/2000/svg"
   xmlns:sodipodi="http://sodipodi.sourceforge.net/DTD/sodipodi-0.dtd"
   xmlns:inkscape="http://www.inkscape.org/namespaces/inkscape"
   id="svg8"
   version="1.1"
   viewBox="0 0 28.574999 28.574999"
   height="108"
   width="108"
   sodipodi:docname="littlec.svg"
   inkscape:version="0.92.5 (2060ec1f9f, 2020-04-08)"
   inkscape:export-filename="/home/oldham/Projects/Continuum/assets/images/littlec.png"
   inkscape:export-xdpi="96"
   inkscape:export-ydpi="96">
  <sodipodi:namedview
     pagecolor="#ffffff"
     bordercolor="#666666"
     borderopacity="1"
     objecttolerance="10"
     gridtolerance="10"
     guidetolerance="10"
     inkscape:pageopacity="0"
     inkscape:pageshadow="2"
     inkscape:window-width="1920"
     inkscape:window-height="1043"
     id="namedview75"
     showgrid="false"
     inkscape:pagecheckerboard="true"
     inkscape:zoom="4.223254"
     inkscape:cx="30.390835"
     inkscape:cy="60.637749"
     inkscape:window-x="0"
     inkscape:window-y="0"
     inkscape:window-maximized="1"
     inkscape:current-layer="layer1"
     units="px"
     showguides="true"
     inkscape:guide-bbox="true" />
  <defs
     id="defs2" />
  <metadata
     id="metadata5">
    <rdf:RDF>
      <cc:Work
         rdf:about="">
        <dc:format>image/svg+xml</dc:format>
        <dc:type
           rdf:resource="http://purl.org/dc/dcmitype/StillImage" />
        <dc:title />
      </cc:Work>
    </rdf:RDF>
  </metadata>
  <g
     transform="translate(0,-268.425)"
     id="layer1">
    <g
       transform="matrix(0.09493791,0,0,0.09832586,5.1074737,273.43923)"
       id="g4641">
      <path
         style="fill:none;fill-opacity:1;stroke:#009be4;stroke-width:66.83746338;stroke-miterlimit:4;stroke-dasharray:none;stroke-opacity:1"
         d="M 573.28496,561.76772 A 276.14176,276.14176 0 0 1 377.70065,642.9709 276.14176,276.14176 0 0 1 101.55889,366.82914 276.14176,276.14176 0 0 1 377.70065,90.687381 276.14176,276.14176 0 0 1 573.45403,172.06034"
         id="path4526"
         transform="scale(0.26458333)"
         inkscape:connector-curvature="0" />
      <path
         id="path4582"
         style="fill:#000000;fill-opacity:1;fill-rule:nonzero;stroke:#009be4;stroke-width:0.40000001;stroke-linecap:butt;stroke-linejoin:miter;stroke-miterlimit:4;stroke-dasharray:none;stroke-opacity:1"
         d="m 141.39498,54.755054 19.50664,-0.02951 v 0 m 0.10088,-19.524852 -0.10088,19.524851 v 0 m 0.10088,-19.524851 -19.60752,19.554362 v 0"
         inkscape:connector-curvature="0" />
      <path
         style="fill:#009be4;fill-opacity:1;fill-rule:nonzero;stroke:#009be4;stroke-width:0;stroke-miterlimit:4;stroke-dasharray:none;stroke-opacity:1"
         d="m 144.51252,54.533704 c -0.0224,-0.03675 -0.21393,-0.382529 -0.4257,-0.7684 -0.21177,-0.385871 -0.41736,-0.756301 -0.45688,-0.823182 l -0.0719,-0.121598 7.27587,-7.260978 c 4.00172,-3.993537 7.89648,-7.877702 8.65501,-8.631479 l 1.37914,-1.370499 -0.0178,0.851921 c -0.01,0.468556 -0.0347,4.745704 -0.0553,9.504773 -0.0206,4.759068 -0.0397,8.655671 -0.0424,8.659119 -0.003,0.0034 -3.64864,0.01098 -8.10214,0.0167 -8.06705,0.0104 -8.09741,0.01019 -8.13792,-0.05638 z"
         id="path4623"
         inkscape:connector-curvature="0" />
      <path
         style="fill:#009be4;fill-opacity:1;fill-rule:nonzero;stroke:#009be4;stroke-width:0.1;stroke-miterlimit:4;stroke-dasharray:none;stroke-opacity:1"
         d="m 142.62489,53.731895 c 0.48668,-0.486931 0.89249,-0.885177 0.90181,-0.884986 0.009,1.87e-4 0.23197,0.390128 0.4948,0.866536 0.36866,0.66824 0.49464,0.86945 0.55124,0.880439 0.0404,0.0078 -0.58049,0.0163 -1.37966,0.01878 l -1.45304,0.0046 z"
         id="path4625"
         inkscape:connector-curvature="0" />
    </g>
    <flowRoot
       transform="matrix(0.26458333,0,0,0.26458333,0,87)"
       style="font-style:normal;font-weight:normal;font-size:40px;line-height:1.25;font-family:sans-serif;letter-spacing:0px;word-spacing:0px;fill:#000000;fill-opacity:1;stroke:none"
       id="flowRoot4780"
       xml:space="preserve"><flowRegion
         id="flowRegion4782"><rect
           y="467.98651"
           x="271.42856"
           height="87.14286"
           width="447.14285"
           id="rect4784" /></flowRegion><flowPara
         style="font-style:normal;font-variant:normal;font-weight:normal;font-stretch:normal;font-size:106.66667175px;font-family:Manuale;-inkscape-font-specification:'Manuale, Normal';font-variant-ligatures:normal;font-variant-caps:normal;font-variant-numeric:normal;font-feature-settings:normal;text-align:start;writing-mode:lr-tb;text-anchor:start"
         id="flowPara4790">ontinuum</flowPara></flowRoot>  </g>
</svg>
